<svg xmlns="http://www.w3.org/2000/svg" xmlns:xlink="http://www.w3.org/1999/xlink" width="124.25" height="124.25" viewBox="0 0 124.25 124.25"><g><circle fill="#DD2726" cx="62" cy="62.325" r="56.385"/><path fill="#7D1416" d="M62 121.072c-32.395 0-58.749-26.352-58.749-58.747.001-32.394 26.355-58.748 58.749-58.748 32.393 0 58.748 26.354 58.748 58.748 0 32.395-26.354 58.747-58.748 58.747zm0-112.767c-29.788 0-54.021 24.233-54.021 54.02 0 29.786 24.234 54.021 54.021 54.021s54.021-24.235 54.021-54.021c0-29.787-24.234-54.02-54.021-54.02z"/><path fill="#fff" d="M69.355 63.498v-38.003h-14.71v38.003h-27.49l34.845 35.658 35.586-35.658z"/><path fill="#7D1416" d="M61.982 102.52l-40.441-41.386h30.74v-38.003h19.438v38.002h31.564l-41.301 41.387zm-29.213-36.661l29.248 29.934 29.871-29.934h-24.896v-38h-9.984v38h-24.239z"/><path fill="#DD2726" d="M29.499 38.151s5.044-10.557 14.97-6.775"/><path fill="#7D1416" d="M31.633 39.17l-4.266-2.038c2.068-4.331 8.479-11.568 17.943-7.965l-1.683 4.417c-7.8-2.971-11.826 5.236-11.994 5.586z"/><path fill="#DD2726" d="M79.611 30.527s10.771-4.292 12.484 8.356"/><path fill="#7D1416" d="M89.754 39.2c-.43-3.168-1.502-5.281-3.189-6.279-2.576-1.522-6.055-.206-6.089-.194l-1.739-4.395c.229-.09 5.605-2.182 10.19.495 3.021 1.763 4.874 5.04 5.51 9.738l-4.683.635z"/><defs><path id="a" d="M116.18 62.325c0 29.922-24.26 54.177-54.179 54.177-29.922 0-54.179-24.254-54.179-54.177 0-29.922 24.256-54.179 54.178-54.179 29.92 0 54.18 24.257 54.18 54.179z"/></defs><clipPath id="b"><use xlink:href="#a" overflow="visible"/></clipPath><g clip-path="url(#b)"><defs><path id="c" d="M62 8.305c-29.788 0-54.021 24.233-54.021 54.02 0 29.786 24.234 54.021 54.021 54.021s54.021-24.235 54.021-54.021c0-29.787-24.234-54.02-54.021-54.02z"/></defs><clipPath id="d"><use xlink:href="#c" overflow="visible"/></clipPath><path clip-path="url(#d)" fill="#BA282E" d="M31.366 110.299s38.539 9.375 86.31-38.398c47.773-47.771 2.596 43.658 2.596 43.658s-36.242 18.906-36.714 18.906c-.473 0-46.323-4.885-46.323-4.885l-5.869-19.281z"/></g><path fill="#7D1416" d="M66.92 82.728c-15.017 0-25.264-4.992-26.23-5.379l-3.208-5.379c.334.134 33.635 13.222 47.882.435l3.156 3.519c-5.698 5.113-13.624 6.804-21.6 6.804z"/></g></svg>