<?xml version="1.0" encoding="utf-8"?>
<!-- Generator: Adobe Illustrator 16.0.0, SVG Export Plug-In . SVG Version: 6.00 Build 0)  -->
<!DOCTYPE svg PUBLIC "-//W3C//DTD SVG 1.1//EN" "http://www.w3.org/Graphics/SVG/1.1/DTD/svg11.dtd">
<svg version="1.1" xmlns="http://www.w3.org/2000/svg" xmlns:xlink="http://www.w3.org/1999/xlink" x="0px" y="0px"
	 width="124.25px" height="124.25px" viewBox="0 0 124.25 124.25" enable-background="new 0 0 124.25 124.25" xml:space="preserve">
<g id="Layer_1">
	<g>
		<g>
			<circle fill="#DD2726" cx="62" cy="62.325" r="56.385"/>
			<path fill="#7D1416" d="M62,121.072c-32.395,0-58.749-26.352-58.749-58.747C3.252,29.931,29.606,3.577,62,3.577
				c32.393,0,58.748,26.354,58.748,58.748C120.748,94.72,94.394,121.072,62,121.072z M62,8.305
				c-29.788,0-54.021,24.233-54.021,54.02c0,29.786,24.234,54.021,54.021,54.021c29.787,0,54.021-24.235,54.021-54.021
				C116.021,32.538,91.787,8.305,62,8.305z"/>
		</g>
		<g>
			<polygon fill="#FFFFFF" points="69.355,63.498 69.355,25.495 54.645,25.495 54.645,63.498 27.155,63.498 62,99.156 
				97.586,63.498 			"/>
			<path fill="#7D1416" d="M61.982,102.52L21.541,61.134h30.74V23.131h19.438v38.002h31.564L61.982,102.52z M32.769,65.859
				l29.248,29.934l29.871-29.934H66.992v-38h-9.984v38H32.769z"/>
		</g>
		<g>
			<path fill="#DD2726" d="M29.499,38.151c0,0,5.044-10.557,14.97-6.775"/>
			<path fill="#7D1416" d="M31.633,39.17l-4.266-2.038c2.068-4.331,8.479-11.568,17.943-7.965l-1.683,4.417
				C35.827,30.613,31.801,38.82,31.633,39.17z"/>
		</g>
		<g>
			<path fill="#DD2726" d="M79.611,30.527c0,0,10.771-4.292,12.484,8.356"/>
			<path fill="#7D1416" d="M89.754,39.2c-0.43-3.168-1.502-5.281-3.189-6.279c-2.576-1.522-6.055-0.206-6.089-0.194l-1.739-4.395
				c0.229-0.09,5.605-2.182,10.19,0.495c3.021,1.763,4.874,5.04,5.51,9.738L89.754,39.2z"/>
		</g>
		<g>
			<defs>
				<path id="SVGID_1_" d="M116.18,62.325c0,29.922-24.26,54.177-54.179,54.177c-29.922,0-54.179-24.254-54.179-54.177
					C7.822,32.403,32.078,8.146,62,8.146C91.92,8.146,116.18,32.403,116.18,62.325z"/>
			</defs>
			<clipPath id="SVGID_2_">
				<use xlink:href="#SVGID_1_"  overflow="visible"/>
			</clipPath>
			<g clip-path="url(#SVGID_2_)">
				<defs>
					<path id="SVGID_3_" d="M62,8.305c-29.788,0-54.021,24.233-54.021,54.02c0,29.786,24.234,54.021,54.021,54.021
						c29.787,0,54.021-24.235,54.021-54.021C116.021,32.538,91.787,8.305,62,8.305z"/>
				</defs>
				<clipPath id="SVGID_4_">
					<use xlink:href="#SVGID_3_"  overflow="visible"/>
				</clipPath>
				<path clip-path="url(#SVGID_4_)" fill="#BA282E" d="M31.366,110.299c0,0,38.539,9.375,86.31-38.398
					c47.773-47.771,2.596,43.658,2.596,43.658s-36.242,18.906-36.714,18.906c-0.473,0-46.323-4.885-46.323-4.885L31.366,110.299z"/>
			</g>
		</g>
		<g>
			<path fill="#7D1416" d="M66.92,82.728c-15.017,0-25.264-4.992-26.23-5.379l-3.208-5.379c0.334,0.134,33.635,13.222,47.882,0.435
				l3.156,3.519C82.822,81.037,74.896,82.728,66.92,82.728z"/>
		</g>
	</g>
</g>
<g id="Layer_2">
</g>
</svg>
